<svg xmlns="http://www.w3.org/2000/svg" width="1200" height="420" viewBox="0 0 1200 420">
  <defs>
    <linearGradient id="bg" x1="0" y1="0" x2="1" y2="1">
      <stop offset="0%" stop-color="#090d18"/>
      <stop offset="55%" stop-color="#31111c"/>
      <stop offset="100%" stop-color="#62151d"/>
    </linearGradient>
    <filter id="glow" x="-40%" y="-40%" width="180%" height="180%">
      <feGaussianBlur stdDeviation="8" result="blur"/>
      <feMerge>
        <feMergeNode in="blur"/>
        <feMergeNode in="SourceGraphic"/>
      </feMerge>
    </filter>
  </defs>
  <rect width="1200" height="420" fill="url(#bg)"/>
  <rect x="50" y="46" width="1100" height="328" rx="28" fill="none" stroke="#ff9aa2" stroke-opacity="0.28" stroke-width="2.5" filter="url(#glow)"/>
  <text x="85" y="145" fill="#fff0f1" font-size="64" font-family="Segoe UI, Arial, sans-serif" font-weight="700" filter="url(#glow)">Boss Codex</text>
  <text x="85" y="198" fill="#ffb7bc" font-size="28" font-family="Segoe UI, Arial, sans-serif">
    <tspan x="85" dy="0">Study the nightmares first.</tspan>
    <tspan x="85" dy="34">Each page hides a deadlier boss pattern.</tspan>
  </text>
  <circle cx="846" cy="220" r="112" fill="#ff3b57" opacity="0.18" filter="url(#glow)"/>
  <circle cx="988" cy="168" r="90" fill="#ff9e2c" opacity="0.14" filter="url(#glow)"/>
  <circle cx="1040" cy="282" r="122" fill="#8c6fff" opacity="0.16" filter="url(#glow)"/>
  <path d="M786 136l56-28 56 28v118l-56 30-56-30z" fill="#150914" stroke="#ffd4d8" stroke-width="3"/>
  <path d="M932 102l42-20 42 20v88l-42 22-42-22z" fill="#1d1113" stroke="#ffd0a6" stroke-width="3"/>
  <path d="M972 228l54-28 54 28v110l-54 28-54-28z" fill="#18102d" stroke="#d4c7ff" stroke-width="3"/>
  <path d="M810 172c18-18 48-18 66 0" fill="none" stroke="#ff9aa2" stroke-width="6" stroke-linecap="round" filter="url(#glow)"/>
  <path d="M950 138c14-14 38-14 52 0" fill="none" stroke="#ffbc68" stroke-width="6" stroke-linecap="round" filter="url(#glow)"/>
  <path d="M996 268c18-18 46-18 64 0" fill="none" stroke="#b397ff" stroke-width="6" stroke-linecap="round" filter="url(#glow)"/>
  <path d="M820 206l18 22 18-22" fill="none" stroke="#fff1ca" stroke-width="5" stroke-linecap="round"/>
  <path d="M958 164l16 18 16-18" fill="none" stroke="#fff1ca" stroke-width="5" stroke-linecap="round"/>
  <path d="M1008 300l18 22 18-22" fill="none" stroke="#fff1ca" stroke-width="5" stroke-linecap="round"/>
</svg>
