<svg xmlns="http://www.w3.org/2000/svg" width="1200" height="420" viewBox="0 0 1200 420">
  <defs>
    <linearGradient id="bg" x1="0" y1="0" x2="1" y2="1">
      <stop offset="0%" stop-color="#170202"/>
      <stop offset="50%" stop-color="#511006"/>
      <stop offset="100%" stop-color="#b52e00"/>
    </linearGradient>
    <radialGradient id="flare" cx="80%" cy="40%" r="44%">
      <stop offset="0%" stop-color="#ff5a36" stop-opacity="0.55"/>
      <stop offset="100%" stop-color="#ff5a36" stop-opacity="0"/>
    </radialGradient>
    <filter id="glow" x="-40%" y="-40%" width="180%" height="180%">
      <feGaussianBlur stdDeviation="8" result="blur"/>
      <feMerge>
        <feMergeNode in="blur"/>
        <feMergeNode in="SourceGraphic"/>
      </feMerge>
    </filter>
  </defs>
  <rect width="1200" height="420" fill="url(#bg)"/>
  <rect width="1200" height="420" fill="url(#flare)"/>
  <rect x="50" y="46" width="1100" height="328" rx="28" fill="none" stroke="#ffb18e" stroke-opacity="0.3" stroke-width="2.5" filter="url(#glow)"/>
  <circle cx="968" cy="198" r="158" fill="#ff7138" opacity="0.12" filter="url(#glow)"/>
  <path d="M892 100l24-52 22 44 20-72 28 56 26-40 10 62 14 8-24 20h-126z" fill="#ffd37a" opacity="0.84" filter="url(#glow)"/>
  <path d="M856 148c0-48 34-82 86-82s86 34 86 82c0 22-10 42-32 60h-108c-22-18-32-38-32-60z" fill="#571105" stroke="#ffe7d8" stroke-width="3"/>
  <path d="M874 118l-24-28 38 10z" fill="#a10d05"/>
  <path d="M1012 118l24-28-38 10z" fill="#a10d05"/>
  <path d="M896 126l26-12 24 12-10 18h-32z" fill="#1b0403"/>
  <path d="M960 126l26-12 24 12-10 18h-32z" fill="#1b0403"/>
  <path d="M904 142l16-10" stroke="#ffe95f" stroke-width="4.5" stroke-linecap="round" filter="url(#glow)"/>
  <path d="M968 142l16-10" stroke="#ffe95f" stroke-width="4.5" stroke-linecap="round" filter="url(#glow)"/>
  <path d="M916 170l26 18 26-18-10 28h-32z" fill="#ff3b2f" opacity="0.95" filter="url(#glow)"/>
  <path d="M838 202h214l26 80-54 32-18 60h-124l-18-60-54-32z" fill="#641506" stroke="#ffe5d6" stroke-width="3"/>
  <path d="M888 216h112l24 42-34 22h-92l-34-22z" fill="#ff5c1f" opacity="0.8" filter="url(#glow)"/>
  <path d="M860 224l-76 50 32 24 76-38z" fill="#320605" stroke="#ffc8b2" stroke-width="3"/>
  <path d="M1030 224l76 50-32 24-76-38z" fill="#320605" stroke="#ffc8b2" stroke-width="3"/>
  <path d="M914 290h66l10 58h-86z" fill="#3b0d05" stroke="#ffb26d" stroke-width="3"/>
  <path d="M926 290l22 34 22-34" fill="none" stroke="#ffe27a" stroke-width="6" stroke-linecap="round" stroke-linejoin="round" filter="url(#glow)"/>
  <path d="M874 372l-34 24h52z" fill="#210404"/>
  <path d="M1006 372l34 24h-52z" fill="#210404"/>
  <path d="M804 306c32-28 66-30 98-8" fill="none" stroke="#ff9f56" stroke-width="6" stroke-linecap="round" filter="url(#glow)"/>
  <path d="M980 296c36-20 70-18 102 10" fill="none" stroke="#ff9f56" stroke-width="6" stroke-linecap="round" filter="url(#glow)"/>
  <text x="85" y="145" fill="#fff5ef" font-size="64" font-family="Segoe UI, Arial, sans-serif" font-weight="700" filter="url(#glow)">Ember Titan</text>
  <text x="85" y="198" fill="#ffc2a3" font-size="28" font-family="Segoe UI, Arial, sans-serif">
    <tspan x="85" dy="0">A furnace-beast with molten fangs,</tspan>
    <tspan x="85" dy="34">savage pressure, and huge Aura payoff.</tspan>
  </text>
</svg>
