<svg xmlns="http://www.w3.org/2000/svg" width="1200" height="420" viewBox="0 0 1200 420">
  <defs>
    <linearGradient id="bg" x1="0" y1="0" x2="1" y2="1">
      <stop offset="0%" stop-color="#1f2937"/>
      <stop offset="100%" stop-color="#0f766e"/>
    </linearGradient>
    <filter id="glow">
      <feGaussianBlur stdDeviation="8" result="blur"/>
      <feMerge>
        <feMergeNode in="blur"/>
        <feMergeNode in="SourceGraphic"/>
      </feMerge>
    </filter>
  </defs>
  <rect width="1200" height="420" fill="url(#bg)"/>
  <rect x="742" y="90" width="298" height="220" rx="24" fill="#022c22" opacity="0.32"/>
  <rect x="54" y="46" width="1092" height="328" rx="28" fill="none" stroke="#99f6e4" stroke-opacity="0.28" stroke-width="2.5" filter="url(#glow)"/>
  <path d="M810 112l18 26h32l-20 22 8 30-28-16-28 16 8-30-20-22h32z" fill="#fef08a" opacity="0.94" filter="url(#glow)"/>
  <path d="M874 118l14 20h24l-16 18 6 24-22-12-22 12 6-24-16-18h24z" fill="#fde68a" opacity="0.88" filter="url(#glow)"/>
  <path d="M928 126l12 16h20l-14 16 5 20-19-10-18 10 5-20-14-16h20z" fill="#fcd34d" opacity="0.84" filter="url(#glow)"/>
  <path d="M778 280h188" stroke="#5eead4" stroke-opacity="0.45" stroke-width="3" filter="url(#glow)"/>
  <text x="85" y="145" fill="#ecfeff" font-size="64" font-family="Segoe UI, Arial, sans-serif" font-weight="700" filter="url(#glow)">Top Clans</text>
  <text x="85" y="198" fill="#99f6e4" font-size="28" font-family="Segoe UI, Arial, sans-serif">
    <tspan x="85" dy="0">Power, members, and total Aura</tspan>
    <tspan x="85" dy="34">at a glance.</tspan>
  </text>
  <text x="560" y="160" fill="#5eead4" font-size="24" font-family="Segoe UI, Arial, sans-serif" filter="url(#glow)">1. Gold Crest</text>
  <text x="560" y="202" fill="#a7f3d0" font-size="21" font-family="Segoe UI, Arial, sans-serif" filter="url(#glow)">2. Night Forge</text>
  <text x="560" y="244" fill="#ccfbf1" font-size="21" font-family="Segoe UI, Arial, sans-serif" filter="url(#glow)">3. Ember Dawn</text>
</svg>
