<svg xmlns="http://www.w3.org/2000/svg" width="1200" height="420" viewBox="0 0 1200 420">
  <defs>
    <linearGradient id="bg" x1="0" y1="0" x2="1" y2="1">
      <stop offset="0%" stop-color="#2a1200"/>
      <stop offset="100%" stop-color="#7c2d12"/>
    </linearGradient>
    <filter id="glow">
      <feGaussianBlur stdDeviation="8" result="blur"/>
      <feMerge>
        <feMergeNode in="blur"/>
        <feMergeNode in="SourceGraphic"/>
      </feMerge>
    </filter>
  </defs>
  <rect width="1200" height="420" fill="url(#bg)"/>
  <polygon points="770,70 980,210 770,350" fill="#fb923c" opacity="0.18" filter="url(#glow)"/>
  <polygon points="1110,70 900,210 1110,350" fill="#fdba74" opacity="0.18" filter="url(#glow)"/>
  <rect x="48" y="46" width="1104" height="328" rx="28" fill="none" stroke="#fed7aa" stroke-opacity="0.28" stroke-width="2.5" filter="url(#glow)"/>
  <path d="M810 108l32 18-60 112-32-18z" fill="#fff7ed" opacity="0.86" filter="url(#glow)"/>
  <path d="M1038 108l-32 18 60 112 32-18z" fill="#ffe4c7" opacity="0.86" filter="url(#glow)"/>
  <path d="M882 162l36 0" stroke="#fde68a" stroke-width="8" stroke-linecap="round" filter="url(#glow)"/>
  <path d="M872 208c24-24 50-24 74 0" fill="none" stroke="#fb923c" stroke-width="5" stroke-linecap="round" filter="url(#glow)"/>
  <path d="M878 252c18-15 42-15 60 0" fill="none" stroke="#fdba74" stroke-width="4" stroke-linecap="round" filter="url(#glow)"/>
  <text x="90" y="145" fill="#fff7ed" font-size="64" font-family="Segoe UI, Arial, sans-serif" font-weight="700" filter="url(#glow)">Clan War</text>
  <text x="90" y="198" fill="#fed7aa" font-size="28" font-family="Segoe UI, Arial, sans-serif">
    <tspan x="90" dy="0">Rosters lock in. Logs roll forward.</tspan>
    <tspan x="90" dy="34">Only one banner stands.</tspan>
  </text>
</svg>
