<svg xmlns="http://www.w3.org/2000/svg" width="1200" height="420" viewBox="0 0 1200 420">
  <defs>
    <linearGradient id="bg" x1="0" y1="0" x2="1" y2="1">
      <stop offset="0%" stop-color="#0b1220"/>
      <stop offset="52%" stop-color="#16314f"/>
      <stop offset="100%" stop-color="#1b5a41"/>
    </linearGradient>
    <filter id="glow" x="-40%" y="-40%" width="180%" height="180%">
      <feGaussianBlur stdDeviation="8" result="blur"/>
      <feMerge>
        <feMergeNode in="blur"/>
        <feMergeNode in="SourceGraphic"/>
      </feMerge>
    </filter>
  </defs>
  <rect width="1200" height="420" fill="url(#bg)"/>
  <circle cx="1030" cy="84" r="120" fill="#facc15" opacity="0.1" filter="url(#glow)"/>
  <circle cx="932" cy="322" r="154" fill="#34d399" opacity="0.12" filter="url(#glow)"/>
  <rect x="54" y="48" width="1092" height="324" rx="30" fill="none" stroke="#86efac" stroke-opacity="0.26" stroke-width="2.5" filter="url(#glow)"/>
  <text x="86" y="140" fill="#f0fdf4" font-size="62" font-family="Segoe UI, Arial, sans-serif" font-weight="700" filter="url(#glow)">Vault &amp; Economy</text>
  <text x="86" y="198" fill="#d9f99d" font-size="28" font-family="Segoe UI, Arial, sans-serif">
    <tspan x="86" dy="0">Deposits, daily rewards, shop items, and passive vault growth.</tspan>
    <tspan x="86" dy="34">Built for fast economy actions without losing your progress view.</tspan>
  </text>
  <rect x="86" y="256" width="340" height="74" rx="20" fill="#0f1a28" stroke="#facc15" stroke-width="3" filter="url(#glow)"/>
  <text x="256" y="302" text-anchor="middle" fill="#fef08a" font-size="24" font-family="Segoe UI, Arial, sans-serif" filter="url(#glow)">Use !deposit, !daily, !shop</text>
  <rect x="742" y="82" width="320" height="256" rx="34" fill="#07151f" opacity="0.42"/>
  <rect x="788" y="108" width="220" height="136" rx="24" fill="#10263b" stroke="#86efac" stroke-width="3" filter="url(#glow)"/>
  <circle cx="842" cy="156" r="26" fill="#facc15" filter="url(#glow)"/>
  <path d="M824 156h36" stroke="#14532d" stroke-width="8" stroke-linecap="round"/>
  <path d="M842 138v36" stroke="#14532d" stroke-width="8" stroke-linecap="round"/>
  <path d="M892 146h76" stroke="#bbf7d0" stroke-width="6" stroke-linecap="round" filter="url(#glow)"/>
  <path d="M892 180h58" stroke="#86efac" stroke-width="6" stroke-linecap="round" filter="url(#glow)"/>
  <path d="M812 290h180" stroke="#1f2937" stroke-width="18" stroke-linecap="round"/>
  <path d="M820 290h72" stroke="#22c55e" stroke-width="18" stroke-linecap="round" filter="url(#glow)"/>
  <path d="M910 290h52" stroke="#facc15" stroke-width="18" stroke-linecap="round" filter="url(#glow)"/>
  <path d="M804 336l36-38 30 22 40-62 28 34 36-46" fill="none" stroke="#a7f3d0" stroke-width="7" stroke-linecap="round" stroke-linejoin="round" filter="url(#glow)"/>
</svg>
