<svg xmlns="http://www.w3.org/2000/svg" width="256" height="256" viewBox="0 0 256 256">
  <defs>
    <linearGradient id="bg" x1="0" y1="0" x2="1" y2="1">
      <stop offset="0%" stop-color="#17091e"/>
      <stop offset="100%" stop-color="#7c2d12"/>
    </linearGradient>
    <filter id="glow" x="-40%" y="-40%" width="180%" height="180%">
      <feGaussianBlur stdDeviation="6" result="blur"/>
      <feMerge>
        <feMergeNode in="blur"/>
        <feMergeNode in="SourceGraphic"/>
      </feMerge>
    </filter>
  </defs>
  <rect width="256" height="256" rx="52" fill="url(#bg)"/>
  <rect x="60" y="66" width="98" height="122" rx="24" fill="#180c26" stroke="#f0abfc" stroke-width="7" filter="url(#glow)"/>
  <rect x="76" y="86" width="18" height="42" rx="8" fill="#2b1240"/>
  <rect x="100" y="86" width="18" height="42" rx="8" fill="#2b1240"/>
  <rect x="124" y="86" width="18" height="42" rx="8" fill="#2b1240"/>
  <text x="85" y="116" text-anchor="middle" fill="#fde68a" font-size="18" font-family="Segoe UI, Arial, sans-serif" font-weight="700" filter="url(#glow)">7</text>
  <text x="109" y="116" text-anchor="middle" fill="#f9a8d4" font-size="18" font-family="Segoe UI, Arial, sans-serif" font-weight="700" filter="url(#glow)">A</text>
  <text x="133" y="116" text-anchor="middle" fill="#67e8f9" font-size="14" font-family="Segoe UI, Arial, sans-serif" font-weight="700" filter="url(#glow)">XP</text>
  <circle cx="196" cy="102" r="26" fill="#f59e0b" filter="url(#glow)"/>
  <path d="M196 80c12 9 20 22 20 34s-8 25-20 34c-12-9-20-22-20-34s8-25 20-34z" fill="none" stroke="#fff7ed" stroke-width="4"/>
  <path d="M188 102c6-6 16-6 22 0" fill="none" stroke="#fff7ed" stroke-width="4" stroke-linecap="round"/>
  <path d="M76 212c18-12 42-12 60 0" fill="none" stroke="#f9a8d4" stroke-width="7" stroke-linecap="round" filter="url(#glow)"/>
</svg>
