<svg xmlns="http://www.w3.org/2000/svg" width="1200" height="420" viewBox="0 0 1200 420">
  <defs>
    <linearGradient id="bg" x1="0" y1="0" x2="1" y2="1">
      <stop offset="0%" stop-color="#052e16"/>
      <stop offset="100%" stop-color="#166534"/>
    </linearGradient>
    <filter id="glow">
      <feGaussianBlur stdDeviation="8" result="blur"/>
      <feMerge>
        <feMergeNode in="blur"/>
        <feMergeNode in="SourceGraphic"/>
      </feMerge>
    </filter>
  </defs>
  <rect width="1200" height="420" fill="url(#bg)"/>
  <circle cx="940" cy="130" r="130" fill="#86efac" opacity="0.18" filter="url(#glow)"/>
  <circle cx="1010" cy="285" r="155" fill="#bbf7d0" opacity="0.12" filter="url(#glow)"/>
  <rect x="48" y="46" width="1104" height="328" rx="28" fill="none" stroke="#bbf7d0" stroke-opacity="0.28" stroke-width="2.5" filter="url(#glow)"/>
  <path d="M892 118l20 30h34l-22 24 8 34-30-16-30 16 8-34-22-24h34z" fill="#fef08a" opacity="0.96" filter="url(#glow)"/>
  <path d="M1000 116l10 20 22 3-16 14 4 22-20-10-20 10 4-22-16-14 22-3z" fill="#fde68a" opacity="0.92" filter="url(#glow)"/>
  <path d="M850 270h170" stroke="#86efac" stroke-opacity="0.52" stroke-width="4" filter="url(#glow)"/>
  <path d="M864 302c20-12 46-12 66 0" fill="none" stroke="#dcfce7" stroke-width="5" stroke-linecap="round" filter="url(#glow)"/>
  <path d="M946 302c20-12 46-12 66 0" fill="none" stroke="#bbf7d0" stroke-width="5" stroke-linecap="round" filter="url(#glow)"/>
  <text x="90" y="145" fill="#f0fdf4" font-size="64" font-family="Segoe UI, Arial, sans-serif" font-weight="700" filter="url(#glow)">PvP Victory</text>
  <text x="90" y="198" fill="#bbf7d0" font-size="28" font-family="Segoe UI, Arial, sans-serif">
    <tspan x="90" dy="0">Aura earned. XP gained.</tspan>
    <tspan x="90" dy="34">Duel complete.</tspan>
  </text>
</svg>
